<svg id="Layer_1" data-name="Layer 1" xmlns="http://www.w3.org/2000/svg" xmlns:xlink="http://www.w3.org/1999/xlink" viewBox="0 0 192 192"><defs><style>.cls-1{fill:url(#linear-gradient);}.cls-2{fill:url(#linear-gradient-2);}.cls-3{fill:url(#linear-gradient-3);}.cls-4{fill:url(#linear-gradient-4);}.cls-5{fill:url(#linear-gradient-5);}.cls-6{fill:#0f9c58;}.cls-7{fill:#f3b300;}.cls-8{fill:#da4437;}.cls-9{fill:#5885f4;}.cls-10{fill:#5f6368;}.cls-11{fill:#4285f4;}.cls-12{fill:#ea4335;}.cls-13{fill:#fbbc04;}.cls-14{fill:#34a853;}</style><linearGradient id="linear-gradient" x1="84.71" y1="76.72" x2="106.88" y2="15.99" gradientTransform="translate(-8.07 34.42) rotate(-19.2)" gradientUnits="userSpaceOnUse"><stop offset="0" stop-color="#fff"/><stop offset="1" stop-color="#5885f4"/></linearGradient><linearGradient id="linear-gradient-2" x1="54" y1="76.72" x2="76.17" y2="15.99" gradientTransform="translate(-9.77 24.32) rotate(-19.2)" xlink:href="#linear-gradient"/><linearGradient id="linear-gradient-3" x1="23.29" y1="76.72" x2="45.46" y2="15.99" gradientTransform="translate(-11.48 14.22) rotate(-19.2)" xlink:href="#linear-gradient"/><linearGradient id="linear-gradient-4" x1="-7.42" y1="76.72" x2="14.75" y2="15.99" gradientTransform="translate(-13.19 4.12) rotate(-19.2)" xlink:href="#linear-gradient"/><linearGradient id="linear-gradient-5" x1="-38.13" y1="76.72" x2="-15.96" y2="15.99" gradientTransform="translate(-14.9 -5.97) rotate(-19.2)" xlink:href="#linear-gradient"/></defs><rect class="cls-1" x="88.59" y="-31" width="18.29" height="144.12" transform="translate(18.94 -29.85) rotate(19.2)"/><rect class="cls-2" x="57.88" y="-31" width="18.29" height="144.12" transform="translate(17.23 -19.75) rotate(19.2)"/><rect class="cls-3" x="27.17" y="-31" width="18.29" height="144.12" transform="translate(15.52 -9.66) rotate(19.2)"/><rect class="cls-4" x="-3.54" y="-31" width="18.29" height="144.12" transform="translate(13.81 0.44) rotate(19.2)"/><rect class="cls-5" x="-34.25" y="-31" width="18.29" height="144.12" transform="translate(12.1 10.54) rotate(19.2)"/><image width="1080" height="1080" transform="translate(15.63 12.8) scale(0.05)" xlink:href="../../01%20-%20Assets/Promo%20Materials/BioBox/Chris_Headshot%20-%20Christopher%20Li.jpg"/><rect class="cls-6" x="140.72" y="179.2" width="5.92" height="21.3" transform="translate(-46.17 333.52) rotate(-90)"/><rect class="cls-7" x="170.57" y="170.24" width="6.11" height="39.41" transform="translate(-16.32 363.57) rotate(-90)"/><rect class="cls-8" x="24.29" y="160.84" width="5.91" height="58.01" transform="translate(-162.6 217.09) rotate(-90)"/><rect class="cls-9" x="91.45" y="150.74" width="5.72" height="78.02" transform="translate(-95.44 284.06) rotate(-90)"/><g id="Cloud_Wordmark_Colour" data-name="Cloud Wordmark Colour"><rect class="cls-10" x="161.99" y="25.33" width="0.89" height="6.93"/><path class="cls-10" d="M164.33,28.09a2.47,2.47,0,0,1,3.51,0,2.74,2.74,0,0,1,0,3.61,2.5,2.5,0,0,1-3.51,0,2.71,2.71,0,0,1,0-3.61m.66,3.05a1.49,1.49,0,0,0,1.09.47,1.48,1.48,0,0,0,1.09-.47,1.71,1.71,0,0,0,.46-1.25,1.68,1.68,0,0,0-.46-1.24,1.44,1.44,0,0,0-1.09-.47,1.45,1.45,0,0,0-1.09.47,1.72,1.72,0,0,0-.46,1.24,1.75,1.75,0,0,0,.46,1.25"/><path class="cls-10" d="M173.45,32.27h-.85v-.66h0a1.64,1.64,0,0,1-.62.57,1.71,1.71,0,0,1-.88.24,1.68,1.68,0,0,1-1.35-.54,2.17,2.17,0,0,1-.46-1.46v-2.9h.89v2.76c0,.88.39,1.33,1.17,1.33a1.08,1.08,0,0,0,.9-.45,1.59,1.59,0,0,0,.35-1V27.52h.89Z"/><path class="cls-10" d="M176.48,32.42a2.06,2.06,0,0,1-1.59-.73,2.75,2.75,0,0,1,0-3.6,2.09,2.09,0,0,1,1.59-.73,2,2,0,0,1,1,.24,1.58,1.58,0,0,1,.64.58h0l0-.66V25.33H179v6.94h-.85v-.66h0a1.65,1.65,0,0,1-.64.58,2.07,2.07,0,0,1-1,.23m.14-.81a1.42,1.42,0,0,0,1.07-.47,2,2,0,0,0,0-2.5,1.41,1.41,0,0,0-1.07-.46,1.38,1.38,0,0,0-1.06.47,1.72,1.72,0,0,0-.45,1.24,1.74,1.74,0,0,0,.45,1.25,1.41,1.41,0,0,0,1.06.47"/><path class="cls-10" d="M158.44,32.42a3.66,3.66,0,0,1-2.56-6.21,3.47,3.47,0,0,1,2.56-1A3.19,3.19,0,0,1,161,26.31l-.62.6a2.33,2.33,0,0,0-1.93-.88,2.62,2.62,0,0,0-1.91.76,3,3,0,0,0,0,4,2.63,2.63,0,0,0,1.91.77,2.72,2.72,0,0,0,2.13-1l.62.62a3.4,3.4,0,0,1-1.19.91,3.7,3.7,0,0,1-1.56.33"/><path class="cls-11" d="M125.19,32.42a3.92,3.92,0,0,1-2.84-1.17,3.89,3.89,0,0,1,0-5.6,3.92,3.92,0,0,1,2.84-1.17,3.79,3.79,0,0,1,2.72,1.09l-.76.77a2.75,2.75,0,0,0-2-.78,2.7,2.7,0,0,0-2,.85,2.92,2.92,0,0,0,0,4.08,2.87,2.87,0,0,0,4,.05,2.35,2.35,0,0,0,.59-1.36h-2.6V28.09h3.65a3.37,3.37,0,0,1,.06.68,3.43,3.43,0,0,1-.94,2.54,3.66,3.66,0,0,1-2.77,1.11"/><path class="cls-12" d="M133.68,28A2.65,2.65,0,0,0,130,28a2.45,2.45,0,0,0-.74,1.82,2.57,2.57,0,1,0,5.13,0,2.45,2.45,0,0,0-.74-1.82M132.87,31a1.39,1.39,0,0,1-2,0,1.5,1.5,0,0,1-.43-1.11,1.53,1.53,0,0,1,.42-1.11,1.39,1.39,0,0,1,1-.44,1.37,1.37,0,0,1,1,.44,1.53,1.53,0,0,1,.42,1.11,1.5,1.5,0,0,1-.43,1.11"/><path class="cls-13" d="M139.27,28a2.47,2.47,0,0,0-1.82-.73,2.5,2.5,0,0,0-1.82.73,2.45,2.45,0,0,0-.74,1.82,2.58,2.58,0,0,0,4.38,1.83,2.46,2.46,0,0,0,.75-1.83,2.42,2.42,0,0,0-.75-1.82m-.8,2.93a1.39,1.39,0,0,1-2,0,1.5,1.5,0,0,1-.43-1.11,1.53,1.53,0,0,1,.42-1.11,1.37,1.37,0,0,1,1-.44,1.41,1.41,0,0,1,1,.44,1.66,1.66,0,0,1,0,2.22"/><path class="cls-11" d="M144.32,27.46v.42h0a1.59,1.59,0,0,0-.55-.41,1.86,1.86,0,0,0-.79-.16,2.33,2.33,0,0,0-1.72.75,2.48,2.48,0,0,0-.73,1.81,2.44,2.44,0,0,0,.73,1.8,2.33,2.33,0,0,0,1.72.75,1.61,1.61,0,0,0,1.34-.58h0v.37a1.58,1.58,0,0,1-.36,1.11,1.3,1.3,0,0,1-1,.39,1.24,1.24,0,0,1-.81-.27,1.64,1.64,0,0,1-.48-.64l-1,.4a2.61,2.61,0,0,0,.83,1.06,2.3,2.3,0,0,0,1.44.46,2.39,2.39,0,0,0,1.74-.67,2.65,2.65,0,0,0,.69-2V27.46ZM144,31a1.25,1.25,0,0,1-1,.44,1.29,1.29,0,0,1-1-.44,1.52,1.52,0,0,1-.42-1.1,1.57,1.57,0,0,1,.42-1.11,1.3,1.3,0,0,1,1-.45,1.26,1.26,0,0,1,1,.45,1.64,1.64,0,0,1,.39,1.11A1.59,1.59,0,0,1,144,31"/><rect class="cls-14" x="146.16" y="24.75" width="1.12" height="7.52"/><path class="cls-12" d="M150.36,31.41a1.32,1.32,0,0,1-1.24-.77l3.42-1.42-.11-.29a4.66,4.66,0,0,0-.25-.5,3.69,3.69,0,0,0-.42-.52,1.94,1.94,0,0,0-.66-.43,2,2,0,0,0-.86-.17,2.33,2.33,0,0,0-1.71.71,2.71,2.71,0,0,0,0,3.66,2.46,2.46,0,0,0,1.81.74,2.35,2.35,0,0,0,1.31-.35,2.84,2.84,0,0,0,.83-.78l-.88-.58a1.46,1.46,0,0,1-1.26.7m-1-2.71a1.35,1.35,0,0,1,.93-.41,1.18,1.18,0,0,1,.59.15.86.86,0,0,1,.36.4l-2.29.95a1.36,1.36,0,0,1,.41-1.09"/></g><path class="cls-10" d="M123.06,37h.51L125,40.87h-.5l-.39-1h-1.65l-.38,1h-.5Zm.93,2.35L123.48,38l-.16-.41h0l-.15.41-.5,1.38Z"/><path class="cls-10" d="M125.89,40.77a1.39,1.39,0,0,1-.5-.52,1.72,1.72,0,0,1,0-1.49,1.32,1.32,0,0,1,1.21-.7,1.34,1.34,0,0,1,.74.2,1.06,1.06,0,0,1,.43.55l-.41.17a.77.77,0,0,0-.3-.38.82.82,0,0,0-.48-.13.81.81,0,0,0-.45.13,1,1,0,0,0-.34.37,1.13,1.13,0,0,0-.12.54,1.19,1.19,0,0,0,.12.54,1,1,0,0,0,.34.36.81.81,0,0,0,.45.13.88.88,0,0,0,.49-.13.77.77,0,0,0,.31-.38l.41.17a1.15,1.15,0,0,1-.45.55,1.27,1.27,0,0,1-.74.21A1.39,1.39,0,0,1,125.89,40.77Z"/><path class="cls-10" d="M128.78,40.77a1.36,1.36,0,0,1-.49-.52,1.63,1.63,0,0,1,0-1.49,1.36,1.36,0,0,1,.49-.52,1.41,1.41,0,0,1,.71-.18,1.35,1.35,0,0,1,.75.2,1.17,1.17,0,0,1,.43.55l-.41.17a.78.78,0,0,0-.31-.38.82.82,0,0,0-.48-.13.81.81,0,0,0-.45.13.91.91,0,0,0-.33.37,1,1,0,0,0-.13.54,1.08,1.08,0,0,0,.13.54.89.89,0,0,0,.33.36.81.81,0,0,0,.45.13.91.91,0,0,0,.5-.13.83.83,0,0,0,.31-.38l.4.17a1.19,1.19,0,0,1-.44.55,1.32,1.32,0,0,1-.75.21A1.42,1.42,0,0,1,128.78,40.77Z"/><path class="cls-10" d="M131.66,40.77a1.34,1.34,0,0,1-.48-.52,1.5,1.5,0,0,1-.18-.74,1.66,1.66,0,0,1,.17-.73,1.39,1.39,0,0,1,.46-.53,1.25,1.25,0,0,1,.7-.19,1.29,1.29,0,0,1,.69.18,1.12,1.12,0,0,1,.45.49,1.53,1.53,0,0,1,.16.72.3.3,0,0,1,0,.14h-2.15a1.1,1.1,0,0,0,.15.53.87.87,0,0,0,.34.32.94.94,0,0,0,.43.1.89.89,0,0,0,.81-.49l.38.19a1.42,1.42,0,0,1-.48.52,1.3,1.3,0,0,1-.73.2A1.38,1.38,0,0,1,131.66,40.77Zm1.49-1.55a.93.93,0,0,0-.1-.35.61.61,0,0,0-.27-.28.88.88,0,0,0-1,.08,1,1,0,0,0-.29.55Z"/><path class="cls-10" d="M134.16,37h.45v3.83h-.45Z"/><path class="cls-10" d="M135.78,40.77a1.36,1.36,0,0,1-.49-.52,1.61,1.61,0,0,1-.17-.74,1.66,1.66,0,0,1,.16-.73,1.39,1.39,0,0,1,.46-.53,1.25,1.25,0,0,1,.7-.19,1.27,1.27,0,0,1,.69.18,1.21,1.21,0,0,1,.46.49,1.66,1.66,0,0,1,.15.72.57.57,0,0,1,0,.14h-2.16a1.1,1.1,0,0,0,.15.53.87.87,0,0,0,.34.32.94.94,0,0,0,.43.1.89.89,0,0,0,.81-.49l.38.19a1.31,1.31,0,0,1-.47.52,1.41,1.41,0,0,1-1.43,0Zm1.48-1.55a1.13,1.13,0,0,0-.09-.35.72.72,0,0,0-.27-.28.86.86,0,0,0-.47-.12.8.8,0,0,0-.54.2,1,1,0,0,0-.29.55Z"/><path class="cls-10" d="M138.27,38.14h.44v.44h0a.69.69,0,0,1,.31-.37.85.85,0,0,1,.48-.15.79.79,0,0,1,.32.06v.48a.93.93,0,0,0-.39-.08.59.59,0,0,0-.36.11.76.76,0,0,0-.26.3.86.86,0,0,0-.1.41v1.53h-.46Z"/><path class="cls-10" d="M140.51,40.84a.91.91,0,0,1-.37-.33.88.88,0,0,1-.12-.46.81.81,0,0,1,.32-.68,1.36,1.36,0,0,1,.83-.24,1.64,1.64,0,0,1,.45,0,2,2,0,0,1,.33.12v-.16a.59.59,0,0,0-.22-.49.76.76,0,0,0-.54-.19,1,1,0,0,0-.42.1.74.74,0,0,0-.3.28l-.35-.26a1.16,1.16,0,0,1,.44-.38,1.33,1.33,0,0,1,.63-.14,1.21,1.21,0,0,1,.87.29,1,1,0,0,1,.32.79v1.73H142v-.39h0a1.08,1.08,0,0,1-.36.34A1,1,0,0,1,141,41,1.15,1.15,0,0,1,140.51,40.84Zm1-.4a.89.89,0,0,0,.32-.32.82.82,0,0,0,.12-.43.94.94,0,0,0-.32-.14,1.27,1.27,0,0,0-.39,0,.92.92,0,0,0-.57.15.51.51,0,0,0-.19.4.48.48,0,0,0,.17.37.7.7,0,0,0,.44.13A.88.88,0,0,0,141.51,40.44Z"/><path class="cls-10" d="M143.7,40.9a.58.58,0,0,1-.24-.15.78.78,0,0,1-.16-.24.82.82,0,0,1-.05-.33V38.55h-.48v-.41h.48v-.77h.45v.77h.66v.41h-.66v1.52a.51.51,0,0,0,.09.34.34.34,0,0,0,.29.12.58.58,0,0,0,.3-.09v.45l-.16,0L144,41A.78.78,0,0,1,143.7,40.9Z"/><path class="cls-10" d="M145.33,40.76a1.39,1.39,0,0,1-.5-.52,1.59,1.59,0,0,1,0-1.47,1.4,1.4,0,0,1,2.45,0,1.59,1.59,0,0,1,0,1.47,1.39,1.39,0,0,1-.5.52,1.41,1.41,0,0,1-1.45,0Zm1.19-.34a1,1,0,0,0,.35-.36,1.09,1.09,0,0,0,.13-.55,1.07,1.07,0,0,0-.13-.55,1,1,0,0,0-.35-.37.94.94,0,0,0-.47-.12,1,1,0,0,0-.47.12,1,1,0,0,0-.35.37,1.18,1.18,0,0,0-.13.55,1.21,1.21,0,0,0,.13.55,1.1,1.1,0,0,0,.35.36,1,1,0,0,0,.47.12A.94.94,0,0,0,146.52,40.42Z"/><path class="cls-10" d="M147.93,38.14h.43v.44h0a.69.69,0,0,1,.31-.37.85.85,0,0,1,.48-.15.79.79,0,0,1,.32.06v.48a1,1,0,0,0-.39-.08.59.59,0,0,0-.36.11.76.76,0,0,0-.26.3.86.86,0,0,0-.1.41v1.53h-.46Z"/><path class="cls-10" d="M154.73,40.69A1.91,1.91,0,0,1,154,40a2.11,2.11,0,0,1,0-2,1.91,1.91,0,0,1,.72-.72,1.93,1.93,0,0,1,1-.27,1.82,1.82,0,0,1,.78.17,1.76,1.76,0,0,1,.62.46l-.33.32a1.31,1.31,0,0,0-.47-.39,1.46,1.46,0,0,0-.6-.12,1.57,1.57,0,0,0-.77.19,1.53,1.53,0,0,0-.55.55,1.73,1.73,0,0,0,0,1.65,1.53,1.53,0,0,0,.55.55,1.57,1.57,0,0,0,.77.19,1.5,1.5,0,0,0,1.18-.57l.33.32a1.93,1.93,0,0,1-.66.5,2,2,0,0,1-.85.19A1.93,1.93,0,0,1,154.73,40.69Z"/><path class="cls-10" d="M158,40.84a1,1,0,0,1-.36-.33.87.87,0,0,1,.2-1.14,1.35,1.35,0,0,1,.82-.24,1.66,1.66,0,0,1,.46,0,1.56,1.56,0,0,1,.32.12v-.16a.61.61,0,0,0-.21-.49.76.76,0,0,0-.54-.19,1,1,0,0,0-.42.1.84.84,0,0,0-.31.28l-.34-.26a1.09,1.09,0,0,1,.44-.38,1.29,1.29,0,0,1,.62-.14,1.23,1.23,0,0,1,.88.29,1,1,0,0,1,.32.79v1.73h-.44v-.39h0a1,1,0,0,1-.35.34,1.08,1.08,0,0,1-.53.14A1.19,1.19,0,0,1,158,40.84Zm1-.4a1,1,0,0,0,.32-.32.92.92,0,0,0,.11-.43.89.89,0,0,0-.31-.14,1.33,1.33,0,0,0-.4,0,.87.87,0,0,0-.56.15.48.48,0,0,0-.19.4.45.45,0,0,0,.17.37.67.67,0,0,0,.43.13A.92.92,0,0,0,159.05,40.44Z"/><path class="cls-10" d="M160.55,38.14H161v.4h0a1,1,0,0,1,.36-.34,1,1,0,0,1,.52-.14,1,1,0,0,1,.76.28,1.13,1.13,0,0,1,.25.78v1.75h-.45V39.19a.73.73,0,0,0-.18-.55.72.72,0,0,0-.5-.17.65.65,0,0,0-.39.12.76.76,0,0,0-.27.32.92.92,0,0,0-.1.42v1.54h-.45Z"/><path class="cls-10" d="M163.86,40.84a.91.91,0,0,1-.37-.33.88.88,0,0,1-.12-.46.79.79,0,0,1,.32-.68,1.36,1.36,0,0,1,.83-.24,1.64,1.64,0,0,1,.45,0,2,2,0,0,1,.33.12v-.16a.61.61,0,0,0-.22-.49.76.76,0,0,0-.54-.19,1,1,0,0,0-.42.1.84.84,0,0,0-.31.28l-.34-.26a1.16,1.16,0,0,1,.44-.38,1.33,1.33,0,0,1,.63-.14,1.21,1.21,0,0,1,.87.29,1,1,0,0,1,.32.79v1.73h-.43v-.39h0a1,1,0,0,1-.35.34,1,1,0,0,1-.53.14A1.12,1.12,0,0,1,163.86,40.84Zm1-.4a1,1,0,0,0,.32-.32.82.82,0,0,0,.12-.43.94.94,0,0,0-.32-.14,1.29,1.29,0,0,0-.4,0,.91.91,0,0,0-.56.15.5.5,0,0,0,0,.77.69.69,0,0,0,.43.13A.89.89,0,0,0,164.86,40.44Z"/><path class="cls-10" d="M166.83,40.77a1.31,1.31,0,0,1-.47-.52,1.72,1.72,0,0,1,0-1.49,1.31,1.31,0,0,1,.47-.52,1.26,1.26,0,0,1,.66-.18,1,1,0,0,1,.56.14,1,1,0,0,1,.37.35h0l0-.38V37h.46v3.83h-.43v-.4h0a1,1,0,0,1-.37.34,1,1,0,0,1-.56.15A1.27,1.27,0,0,1,166.83,40.77Zm1.16-.35a.91.91,0,0,0,.33-.37,1.21,1.21,0,0,0,0-1.09.83.83,0,0,0-.33-.36.81.81,0,0,0-.45-.13.8.8,0,0,0-.44.13.91.91,0,0,0-.34.36,1.2,1.2,0,0,0-.12.55,1.19,1.19,0,0,0,.12.54,1,1,0,0,0,.34.37.88.88,0,0,0,.44.12A.89.89,0,0,0,168,40.42Z"/><path class="cls-10" d="M169.86,40.84a1,1,0,0,1-.36-.33.87.87,0,0,1,.2-1.14,1.33,1.33,0,0,1,.82-.24,1.66,1.66,0,0,1,.46,0,1.56,1.56,0,0,1,.32.12v-.16a.61.61,0,0,0-.21-.49.76.76,0,0,0-.54-.19.93.93,0,0,0-.42.1.84.84,0,0,0-.31.28l-.34-.26a1.09,1.09,0,0,1,.44-.38,1.29,1.29,0,0,1,.62-.14,1.25,1.25,0,0,1,.88.29,1,1,0,0,1,.32.79v1.73h-.44v-.39h0a1.14,1.14,0,0,1-.35.34,1.08,1.08,0,0,1-.53.14A1.19,1.19,0,0,1,169.86,40.84Zm1-.4a.86.86,0,0,0,.31-.32.82.82,0,0,0,.12-.43.89.89,0,0,0-.31-.14,1.33,1.33,0,0,0-.4,0,.87.87,0,0,0-.56.15.48.48,0,0,0-.19.4.45.45,0,0,0,.17.37.67.67,0,0,0,.43.13A.92.92,0,0,0,170.87,40.44Z"/><rect class="cls-10" x="151.32" y="36.62" width="0.26" height="4.75"/><image width="1038" height="676" transform="translate(84.89 65.77) scale(0.09)" xlink:href="../../01%20-%20Assets/Promo%20Materials/loopt/IMG_5261.JPG"/></svg>